<svg xmlns="http://www.w3.org/2000/svg" version="1.1" viewBox="0.00 0.00 256.00 256.00" width="256.00" height="256.00">
<g stroke-width="2.00" fill="none" stroke-linecap="butt">
<path stroke="#603edf" d="&#10;  M 228.04 74.96&#10;  Q 217.39 74.55 211.27 73.68&#10;  Q 194.36 71.28 178.13 61.64&#10;  C 161.11 51.54 145.67 42.79 126.42 39.75&#10;  C 113.49 37.71 102.00 39.45 91.29 47.04"/>
<path stroke="#ae9cf1" d="&#10;  M 91.29 47.04&#10;  Q 88.94 48.06 86.55 49.04&#10;  Q 64.72 58.02 52.25 78.03&#10;  Q 46.47 87.31 44.75 98.26"/>
<path stroke="#6048e2" d="&#10;  M 44.75 98.26&#10;  Q 41.39 109.84 44.80 121.32&#10;  A 1.45 1.44 -26.7 0 1 44.27 122.91&#10;  Q 41.69 124.83 37.79 128.37&#10;  C 34.10 131.72 30.40 133.57 25.16 134.29&#10;  Q 23.63 134.50 18.82 135.31&#10;  Q 16.84 135.64 15.32 133.51"/>
<path stroke="#aaa4ea" d="&#10;  M 68.15 71.99&#10;  C 61.18 84.64 59.80 100.33 67.27 112.81&#10;  Q 73.32 122.91 85.06 127.51&#10;  Q 89.04 129.07 145.17 149.77&#10;  C 160.52 155.43 169.67 167.97 166.84 184.75&#10;  Q 165.84 190.73 162.16 196.02&#10;  Q 158.19 201.73 153.47 204.98&#10;  C 134.01 218.39 107.76 213.01 90.31 198.66&#10;  Q 81.48 191.39 74.94 181.47&#10;  Q 74.67 181.06 75.02 180.72&#10;  L 87.82 168.63&#10;  A 0.72 0.72 0.0 0 1 88.91 168.74&#10;  Q 92.80 174.37 97.85 179.27&#10;  Q 104.42 185.65 112.06 188.97&#10;  Q 121.15 192.92 131.09 192.10&#10;  Q 137.46 191.57 141.73 187.45&#10;  C 144.96 184.34 145.74 178.53 143.20 174.78&#10;  Q 141.25 171.91 138.62 170.36&#10;  Q 135.52 168.54 134.71 168.25&#10;  Q 105.12 157.81 75.77 146.73&#10;  Q 65.45 142.83 58.08 135.67&#10;  Q 42.43 120.47 44.75 98.26"/>
<path stroke="#603edf" d="&#10;  M 240.06 108.98&#10;  C 224.37 113.61 209.15 118.92 193.19 122.88"/>
<path stroke="#aa9ae8" d="&#10;  M 193.19 122.88&#10;  Q 187.56 119.03 180.93 116.60&#10;  Q 142.70 102.60 124.67 96.38&#10;  Q 118.53 94.25 115.69 91.77&#10;  Q 108.07 85.08 111.75 77.11&#10;  C 117.39 64.93 134.97 66.40 144.96 70.83&#10;  Q 154.01 74.85 161.99 82.89&#10;  Q 165.91 86.83 169.45 90.96&#10;  Q 169.66 91.19 169.89 90.98&#10;  L 183.16 78.43&#10;  A 0.39 0.38 -41.1 0 0 183.20 77.90&#10;  Q 176.59 69.80 170.10 63.85&#10;  C 152.33 47.54 124.86 40.43 103.95 54.41&#10;  C 85.76 66.58 82.28 92.22 99.84 107.06&#10;  Q 104.80 111.26 110.14 113.20&#10;  Q 150.67 127.94 169.71 135.14&#10;  C 188.65 142.30 196.10 157.80 191.72 177.31"/>
<path stroke="#5c46d9" d="&#10;  M 191.72 177.31&#10;  C 190.04 165.06 187.73 152.14 176.99 144.32&#10;  Q 171.91 140.62 166.07 138.26&#10;  C 152.15 132.63 140.40 127.33 127.14 122.37&#10;  Q 116.46 118.37 112.98 116.83&#10;  Q 98.10 110.28 90.03 96.24&#10;  Q 85.52 88.40 80.94 80.60&#10;  C 78.09 75.74 74.31 71.00 68.15 71.99"/>
<path stroke="#aa9ae8" d="&#10;  M 68.15 71.99&#10;  Q 76.92 56.40 91.97 47.09&#10;  A 0.07 0.07 0.0 0 0 91.91 46.97&#10;  Q 91.73 47.04 91.29 47.04"/>
<path stroke="#6048e2" d="&#10;  M 181.62 203.32&#10;  Q 199.72 196.15 218.85 197.32"/>
<path stroke="#ae9cf1" d="&#10;  M 193.19 122.88&#10;  Q 206.50 132.87 209.67 148.29&#10;  C 211.67 157.97 210.05 168.98 205.50 177.74&#10;  Q 197.47 193.17 181.62 203.32"/>
<path stroke="#aaa4ea" d="&#10;  M 181.62 203.32&#10;  Q 175.02 206.94 167.99 209.74&#10;  Q 166.77 210.23 167.86 209.50&#10;  Q 185.45 197.90 191.72 177.31"/>
</g>
<path fill="#6440e8" d="&#10;  M 228.04 74.96&#10;  Q 217.39 74.55 211.27 73.68&#10;  Q 194.36 71.28 178.13 61.64&#10;  C 161.11 51.54 145.67 42.79 126.42 39.75&#10;  C 113.49 37.71 102.00 39.45 91.29 47.04&#10;  Q 88.94 48.06 86.55 49.04&#10;  Q 64.72 58.02 52.25 78.03&#10;  Q 46.47 87.31 44.75 98.26&#10;  Q 41.39 109.84 44.80 121.32&#10;  A 1.45 1.44 -26.7 0 1 44.27 122.91&#10;  Q 41.69 124.83 37.79 128.37&#10;  C 34.10 131.72 30.40 133.57 25.16 134.29&#10;  Q 23.63 134.50 18.82 135.31&#10;  Q 16.84 135.64 15.32 133.51&#10;  Q 14.63 116.66 17.59 104.54&#10;  Q 27.75 62.97 61.84 38.06&#10;  Q 85.11 21.05 115.36 17.03&#10;  Q 125.06 15.74 135.29 16.46&#10;  Q 169.73 18.90 197.68 40.09&#10;  Q 216.45 54.31 228.04 74.96&#10;  Z"/>
<path fill="#5c3cd6" d="&#10;  M 228.04 74.96&#10;  Q 236.82 90.98 240.06 108.98&#10;  C 224.37 113.61 209.15 118.92 193.19 122.88&#10;  Q 187.56 119.03 180.93 116.60&#10;  Q 142.70 102.60 124.67 96.38&#10;  Q 118.53 94.25 115.69 91.77&#10;  Q 108.07 85.08 111.75 77.11&#10;  C 117.39 64.93 134.97 66.40 144.96 70.83&#10;  Q 154.01 74.85 161.99 82.89&#10;  Q 165.91 86.83 169.45 90.96&#10;  Q 169.66 91.19 169.89 90.98&#10;  L 183.16 78.43&#10;  A 0.39 0.38 -41.1 0 0 183.20 77.90&#10;  Q 176.59 69.80 170.10 63.85&#10;  C 152.33 47.54 124.86 40.43 103.95 54.41&#10;  C 85.76 66.58 82.28 92.22 99.84 107.06&#10;  Q 104.80 111.26 110.14 113.20&#10;  Q 150.67 127.94 169.71 135.14&#10;  C 188.65 142.30 196.10 157.80 191.72 177.31&#10;  C 190.04 165.06 187.73 152.14 176.99 144.32&#10;  Q 171.91 140.62 166.07 138.26&#10;  C 152.15 132.63 140.40 127.33 127.14 122.37&#10;  Q 116.46 118.37 112.98 116.83&#10;  Q 98.10 110.28 90.03 96.24&#10;  Q 85.52 88.40 80.94 80.60&#10;  C 78.09 75.74 74.31 71.00 68.15 71.99&#10;  Q 76.92 56.40 91.97 47.09&#10;  A 0.07 0.07 0.0 0 0 91.91 46.97&#10;  Q 91.73 47.04 91.29 47.04&#10;  C 102.00 39.45 113.49 37.71 126.42 39.75&#10;  C 145.67 42.79 161.11 51.54 178.13 61.64&#10;  Q 194.36 71.28 211.27 73.68&#10;  Q 217.39 74.55 228.04 74.96&#10;  Z"/>
<path fill="#f8f8f9" d="&#10;  M 68.15 71.99&#10;  C 61.18 84.64 59.80 100.33 67.27 112.81&#10;  Q 73.32 122.91 85.06 127.51&#10;  Q 89.04 129.07 145.17 149.77&#10;  C 160.52 155.43 169.67 167.97 166.84 184.75&#10;  Q 165.84 190.73 162.16 196.02&#10;  Q 158.19 201.73 153.47 204.98&#10;  C 134.01 218.39 107.76 213.01 90.31 198.66&#10;  Q 81.48 191.39 74.94 181.47&#10;  Q 74.67 181.06 75.02 180.72&#10;  L 87.82 168.63&#10;  A 0.72 0.72 0.0 0 1 88.91 168.74&#10;  Q 92.80 174.37 97.85 179.27&#10;  Q 104.42 185.65 112.06 188.97&#10;  Q 121.15 192.92 131.09 192.10&#10;  Q 137.46 191.57 141.73 187.45&#10;  C 144.96 184.34 145.74 178.53 143.20 174.78&#10;  Q 141.25 171.91 138.62 170.36&#10;  Q 135.52 168.54 134.71 168.25&#10;  Q 105.12 157.81 75.77 146.73&#10;  Q 65.45 142.83 58.08 135.67&#10;  Q 42.43 120.47 44.75 98.26&#10;  Q 46.47 87.31 52.25 78.03&#10;  Q 64.72 58.02 86.55 49.04&#10;  Q 88.94 48.06 91.29 47.04&#10;  Q 91.73 47.04 91.91 46.97&#10;  A 0.07 0.07 0.0 0 1 91.97 47.09&#10;  Q 76.92 56.40 68.15 71.99&#10;  Z"/>
<path fill="#f8f8f9" d="&#10;  M 193.19 122.88&#10;  Q 206.50 132.87 209.67 148.29&#10;  C 211.67 157.97 210.05 168.98 205.50 177.74&#10;  Q 197.47 193.17 181.62 203.32&#10;  Q 175.02 206.94 167.99 209.74&#10;  Q 166.77 210.23 167.86 209.50&#10;  Q 185.45 197.90 191.72 177.31&#10;  C 196.10 157.80 188.65 142.30 169.71 135.14&#10;  Q 150.67 127.94 110.14 113.20&#10;  Q 104.80 111.26 99.84 107.06&#10;  C 82.28 92.22 85.76 66.58 103.95 54.41&#10;  C 124.86 40.43 152.33 47.54 170.10 63.85&#10;  Q 176.59 69.80 183.20 77.90&#10;  A 0.39 0.38 -41.1 0 1 183.16 78.43&#10;  L 169.89 90.98&#10;  Q 169.66 91.19 169.45 90.96&#10;  Q 165.91 86.83 161.99 82.89&#10;  Q 154.01 74.85 144.96 70.83&#10;  C 134.97 66.40 117.39 64.93 111.75 77.11&#10;  Q 108.07 85.08 115.69 91.77&#10;  Q 118.53 94.25 124.67 96.38&#10;  Q 142.70 102.60 180.93 116.60&#10;  Q 187.56 119.03 193.19 122.88&#10;  Z"/>
<path fill="#5c50db" d="&#10;  M 191.72 177.31&#10;  Q 185.45 197.90 167.86 209.50&#10;  Q 166.77 210.23 167.99 209.74&#10;  Q 175.02 206.94 181.62 203.32&#10;  Q 199.72 196.15 218.85 197.32&#10;  Q 208.36 211.23 193.99 221.25&#10;  Q 162.48 243.21 124.01 241.73&#10;  Q 95.00 240.61 69.96 225.76&#10;  Q 61.52 220.76 53.87 213.93&#10;  C 30.77 193.33 16.50 164.62 15.32 133.51&#10;  Q 16.84 135.64 18.82 135.31&#10;  Q 23.63 134.50 25.16 134.29&#10;  C 30.40 133.57 34.10 131.72 37.79 128.37&#10;  Q 41.69 124.83 44.27 122.91&#10;  A 1.45 1.44 -26.7 0 0 44.80 121.32&#10;  Q 41.39 109.84 44.75 98.26&#10;  Q 42.43 120.47 58.08 135.67&#10;  Q 65.45 142.83 75.77 146.73&#10;  Q 105.12 157.81 134.71 168.25&#10;  Q 135.52 168.54 138.62 170.36&#10;  Q 141.25 171.91 143.20 174.78&#10;  C 145.74 178.53 144.96 184.34 141.73 187.45&#10;  Q 137.46 191.57 131.09 192.10&#10;  Q 121.15 192.92 112.06 188.97&#10;  Q 104.42 185.65 97.85 179.27&#10;  Q 92.80 174.37 88.91 168.74&#10;  A 0.72 0.72 0.0 0 0 87.82 168.63&#10;  L 75.02 180.72&#10;  Q 74.67 181.06 74.94 181.47&#10;  Q 81.48 191.39 90.31 198.66&#10;  C 107.76 213.01 134.01 218.39 153.47 204.98&#10;  Q 158.19 201.73 162.16 196.02&#10;  Q 165.84 190.73 166.84 184.75&#10;  C 169.67 167.97 160.52 155.43 145.17 149.77&#10;  Q 89.04 129.07 85.06 127.51&#10;  Q 73.32 122.91 67.27 112.81&#10;  C 59.80 100.33 61.18 84.64 68.15 71.99&#10;  C 74.31 71.00 78.09 75.74 80.94 80.60&#10;  Q 85.52 88.40 90.03 96.24&#10;  Q 98.10 110.28 112.98 116.83&#10;  Q 116.46 118.37 127.14 122.37&#10;  C 140.40 127.33 152.15 132.63 166.07 138.26&#10;  Q 171.91 140.62 176.99 144.32&#10;  C 187.73 152.14 190.04 165.06 191.72 177.31&#10;  Z"/>
<path fill="#6440e8" d="&#10;  M 240.06 108.98&#10;  C 241.38 117.11 241.70 124.05 241.55 132.09&#10;  Q 241.42 139.44 240.55 145.38&#10;  Q 236.80 170.91 222.35 192.58&#10;  Q 220.72 195.02 218.85 197.32&#10;  Q 199.72 196.15 181.62 203.32&#10;  Q 197.47 193.17 205.50 177.74&#10;  C 210.05 168.98 211.67 157.97 209.67 148.29&#10;  Q 206.50 132.87 193.19 122.88&#10;  C 209.15 118.92 224.37 113.61 240.06 108.98&#10;  Z"/>
</svg>